HIERARCHY
ROOT joint_Root
{
	OFFSET 0.0 0.0 0.0
	CHANNELS 6 Xposition Yposition Zposition Zrotation Xrotation Yrotation 
	JOINT Hips
	{
		OFFSET -0.726466 93.3139 -2.00062
		CHANNELS 6 Xposition Yposition Zposition Zrotation Xrotation Yrotation 
		JOINT Spine
		{
			OFFSET 15.7357 0.0 0.0
			CHANNELS 6 Xposition Yposition Zposition Zrotation Xrotation Yrotation 
			JOINT Chest
			{
				OFFSET 8.98455 -0.406207 0.0
				CHANNELS 6 Xposition Yposition Zposition Zrotation Xrotation Yrotation 
				JOINT Neck
				{
					OFFSET 16.3773 0.0 0.0
					CHANNELS 6 Xposition Yposition Zposition Zrotation Xrotation Yrotation 
					JOINT Head
					{
						OFFSET 6.45672 0.0 0.0
						CHANNELS 6 Xposition Yposition Zposition Zrotation Xrotation Yrotation 
						End Site
						{
							OFFSET 0.0 0.0 0.0
						}
					}
				}
				JOINT Shoulder_L
				{
					OFFSET 12.9942 -0.242716 4.98039
					CHANNELS 6 Xposition Yposition Zposition Zrotation Xrotation Yrotation 
					JOINT UpperArm_L
					{
						OFFSET 5.34809 0.0 0.0
						CHANNELS 6 Xposition Yposition Zposition Zrotation Xrotation Yrotation 
						JOINT LowerArm_L
						{
							OFFSET 24.3286 1.87007e-05 0.0
							CHANNELS 6 Xposition Yposition Zposition Zrotation Xrotation Yrotation 
							JOINT Hand_L
							{
								OFFSET 22.2916 0.0 0.0
								CHANNELS 6 Xposition Yposition Zposition Zrotation Xrotation Yrotation 
								End Site
								{
									OFFSET 0.0 0.0 0.0
								}
							}
						}
					}
				}
				JOINT Shoulder_R
				{
					OFFSET 12.9945 -0.242716 -4.98039
					CHANNELS 6 Xposition Yposition Zposition Zrotation Xrotation Yrotation 
					JOINT UpperArm_R
					{
						OFFSET -5.34813 0.0 0.0
						CHANNELS 6 Xposition Yposition Zposition Zrotation Xrotation Yrotation 
						JOINT LowerArm_R
						{
							OFFSET -24.3289 0.000322201 0.0
							CHANNELS 6 Xposition Yposition Zposition Zrotation Xrotation Yrotation 
							JOINT Hand_R
							{
								OFFSET -22.2915 -0.000108084 0.0
								CHANNELS 6 Xposition Yposition Zposition Zrotation Xrotation Yrotation 
								End Site
								{
									OFFSET 0.0 0.0 0.0
								}
							}
						}
					}
				}
			}
		}
		JOINT UpperLeg_L
		{
			OFFSET -2.19248 -6.46944 0.0
			CHANNELS 6 Xposition Yposition Zposition Zrotation Xrotation Yrotation 
			JOINT LowerLeg_L
			{
				OFFSET 39.0811 0.0 -1.23785e-05
				CHANNELS 6 Xposition Yposition Zposition Zrotation Xrotation Yrotation 
				JOINT Foot_L
				{
					OFFSET 40.9854 0.0 -1.26872e-05
					CHANNELS 6 Xposition Yposition Zposition Zrotation Xrotation Yrotation 
					JOINT Toes_L
					{
						OFFSET 11.7543 0.0 0.0
						CHANNELS 6 Xposition Yposition Zposition Zrotation Xrotation Yrotation 
						End Site
						{
							OFFSET 0.0 0.0 0.0
						}
					}
				}
			}
		}
		JOINT UpperLeg_R
		{
			OFFSET -2.19251 6.46944 0.0
			CHANNELS 6 Xposition Yposition Zposition Zrotation Xrotation Yrotation 
			JOINT LowerLeg_R
			{
				OFFSET -39.0811 -0.00228153 -0.0401928
				CHANNELS 6 Xposition Yposition Zposition Zrotation Xrotation Yrotation 
				JOINT Foot_R
				{
					OFFSET -40.9854 0.0 0.0
					CHANNELS 6 Xposition Yposition Zposition Zrotation Xrotation Yrotation 
					JOINT Toes_R
					{
						OFFSET -11.7543 0.0 0.0
						CHANNELS 6 Xposition Yposition Zposition Zrotation Xrotation Yrotation 
						End Site
						{
							OFFSET 0.0 0.0 0.0
						}
					}
				}
			}
		}
	}
}
MOTION
Frames:	4
Frame Time:	0.0333333
0.000000 0.000000 0.000000 0.000000 0.000000 -0.000000 0.795970 80.382600 -447.869000 83.176100 -6.495590 -11.783000 15.735700 0.000005 -0.000001 100.815000 77.058600 -97.210700 8.984550 -0.406207 -0.000000 17.552800 5.077900 6.441170 16.377300 -0.000001 -0.000001 0.944458 -1.235930 1.111000 6.456720 -0.000001 -0.000000 -9.778160 -1.125100 -8.463810 12.994200 -0.242716 4.980390 -87.653000 -6.074120 -68.829400 5.348090 -0.000007 -0.000001 -63.406300 31.197800 2.054320 24.328600 0.000019 0.000005 -0.790255 -0.833674 -43.468300 22.291600 -0.000001 0.000005 -0.814689 5.634580 -13.685800 12.994500 -0.242716 -4.980390 90.422700 -1.238680 -71.158300 -5.348130 -0.000001 -0.000004 -41.591500 23.513100 -42.192300 -24.328900 0.000322 -0.000009 -12.868400 -8.876280 -55.968700 -22.291500 -0.000108 -0.000004 9.384800 5.623310 -12.854900 -2.192480 -6.469440 -0.000000 -176.030000 -1.888590 -33.128200 39.081100 -0.000007 -0.000012 -0.277125 -0.049656 100.161000 40.985400 -0.000006 -0.000013 3.858030 -1.020660 -53.639000 11.754300 -0.000000 0.000003 -0.006305 -0.073586 -19.571900 -2.192510 6.469440 -0.000001 -171.352000 13.190800 149.671000 -39.081100 -0.002282 -0.040193 0.047195 -0.021978 63.467600 -40.985400 0.000008 0.000006 2.582240 -3.306000 -90.004200 -11.754300 -0.000006 -0.000006 -0.005741 -0.068464 -19.359300
0.000000 0.000000 0.000000 0.000000 0.000000 -0.000000 0.993747 81.372500 -440.284000 86.149600 -8.850160 -12.887700 15.735700 0.000005 -0.000001 104.311000 77.854600 -102.606000 8.984550 -0.406207 -0.000000 15.744100 6.036420 2.579960 16.377300 -0.000001 -0.000001 1.880690 -1.489580 1.213510 6.456720 -0.000001 -0.000000 -8.256990 -2.978380 -7.502530 12.994200 -0.242716 4.980390 -86.806200 -7.627850 -67.200600 5.348090 -0.000007 -0.000001 -61.534300 31.220900 8.386670 24.328600 0.000019 0.000005 0.686171 0.710925 -43.941800 22.291600 -0.000001 0.000005 -1.529390 5.627010 -13.123200 12.994500 -0.242716 -4.980390 91.633200 -4.742100 -70.975900 -5.348130 -0.000001 -0.000004 -37.917000 21.124600 -46.490600 -24.328900 0.000322 -0.000009 -11.869200 -6.102340 -63.175900 -22.291500 -0.000108 -0.000004 10.209000 5.616050 -12.359000 -2.192480 -6.469440 -0.000000 179.674000 -4.234460 -43.869500 39.081100 -0.000007 -0.000012 -0.228677 -0.053679 103.213000 40.985400 -0.000006 -0.000013 7.343880 -5.566830 -58.028300 11.754300 -0.000000 0.000003 -0.006348 -0.073975 -19.587700 -2.192510 6.469440 -0.000001 -177.240000 14.743000 156.892000 -39.081100 -0.002282 -0.040193 0.024455 -0.013476 57.607400 -40.985400 0.000008 0.000006 2.269730 0.657019 -90.294900 -11.754300 -0.000006 -0.000006 -0.009636 -0.100893 -20.683400
0.000000 0.000000 0.000000 0.000000 0.000000 -0.000000 1.262750 83.616500 -431.773000 88.981800 -10.854300 -13.020100 15.735700 0.000005 -0.000001 107.521000 78.285400 -107.686000 8.984550 -0.406207 -0.000000 14.664100 6.955210 -1.227030 16.377300 -0.000001 -0.000001 3.599240 -1.803510 1.646740 6.456720 -0.000001 -0.000000 -7.350140 -4.695100 -6.418030 12.994200 -0.242716 4.980390 -86.256600 -8.334830 -65.708300 5.348090 -0.000007 -0.000001 -58.840800 31.570300 13.794300 24.328600 0.000019 0.000005 2.200870 2.120590 -46.077800 22.291600 -0.000001 0.000005 -3.703830 5.630890 -13.412000 12.994500 -0.242716 -4.980390 92.798500 -7.805740 -70.206400 -5.348130 -0.000001 -0.000004 -35.678200 19.546700 -48.168400 -24.328900 0.000322 -0.000009 -10.854900 -4.313210 -68.584900 -22.291500 -0.000108 -0.000004 10.585700 5.607010 -11.772100 -2.192480 -6.469440 -0.000000 176.025000 -5.457660 -49.786100 39.081100 -0.000007 -0.000012 -0.086074 -0.012483 98.258800 40.985400 -0.000006 -0.000013 7.844550 -7.602820 -62.609900 11.754300 -0.000000 0.000003 -0.005565 -0.066839 -19.296700 -2.192510 6.469440 -0.000001 176.343000 15.467700 166.772000 -39.081100 -0.002282 -0.040193 0.003224 0.000030 47.428900 -40.985400 0.000008 0.000006 1.544590 4.371510 -84.016800 -11.754300 -0.000006 -0.000006 -0.032779 -0.229927 -25.999700
0.000000 0.000000 0.000000 0.000000 0.000000 -0.000000 1.506590 86.773100 -423.140000 90.564400 -12.564200 -14.102200 15.735700 0.000005 -0.000001 111.054000 78.866600 -112.708000 8.984550 -0.406207 -0.000000 13.220600 7.838950 -4.221130 16.377300 -0.000001 -0.000001 5.665210 -1.683480 2.127350 6.456720 -0.000001 -0.000000 -7.122420 -6.063580 -5.110010 12.994200 -0.242716 4.980390 -85.526100 -9.253080 -64.053400 5.348090 -0.000007 -0.000001 -58.259900 30.927900 18.048000 24.328600 0.000019 0.000005 2.801680 2.551840 -47.702700 22.291600 -0.000001 0.000005 -4.101110 5.633690 -13.624200 12.994500 -0.242716 -4.980390 93.710000 -10.235700 -69.952800 -5.348130 -0.000001 -0.000004 -34.839000 19.422100 -47.493400 -24.328900 0.000322 -0.000009 -9.471010 -3.049070 -72.317000 -22.291500 -0.000108 -0.000004 9.812950 5.595540 -11.075600 -2.192480 -6.469440 -0.000000 174.029000 -6.386400 -53.323000 39.081100 -0.000007 -0.000012 0.047097 -0.002436 87.028300 40.985400 -0.000006 -0.000013 7.062770 -8.845280 -66.363800 11.754300 -0.000000 0.000003 -0.005871 -0.069671 -19.412200 -2.192510 6.469440 -0.000001 171.822000 15.331100 173.980000 -39.081100 -0.002282 -0.040193 0.019189 -0.020950 37.202800 -40.985400 0.000008 0.000006 0.844668 7.244380 -68.160600 -11.754300 -0.000006 -0.000006 -0.134331 -0.522812 -38.592300
